# xmcd
#
# Track frame offsets: 
#        150
#        14313
#        29550
#        51481
#        64639
#        84735
#        98735
#        119636
#        134699
#        148747
#        166993
#        187495
#        200473
#
# Disc length: 2976 seconds
#
# Revision: 0
# Processed by: cddbd v1.5.2PL0 Copyright (c) Steve Scherf et al.
# Submitted via: ExactAudioCopyFreeDBPlugin 1.0
#
DISCID=cb0b9e0d
DTITLE=Guy Penrod - Hymns
DYEAR=2012
DGENRE=Hymns
TTITLE0=Leaning On The Everlasting Arms
TTITLE1=Count Your Blessings
TTITLE2=The Old Rugged Cross
TTITLE3=Down At The Cross
TTITLE4=He Hideth My Soul
TTITLE5=We'll Understand It Better By And By
TTITLE6=Rock Of Ages - I Stand Amazed
TTITLE7=What A Friend We Have In Jesus
TTITLE8=The Solid Rock
TTITLE9=Amazing Grace
TTITLE10=Does Jesus Care? (Duet With Bev Shea)
TTITLE11=Nothing But The Blood
TTITLE12=Softly And Tenderly
EXTD=
EXTT0=
EXTT1=
EXTT2=
EXTT3=
EXTT4=
EXTT5=
EXTT6=
EXTT7=
EXTT8=
EXTT9=
EXTT10=
EXTT11=
EXTT12=
PLAYORDER=
